<svg width="141" height="115" viewBox="0 0 141 115" fill="none" xmlns="http://www.w3.org/2000/svg">
<path fill-rule="evenodd" clip-rule="evenodd" d="M80.8881 0.410934C79.0327 1.36028 76.432 3.69552 73.0997 7.40417L72.0684 8.55164L68.5532 8.70183C66.6195 8.78445 64.391 8.99788 63.6006 9.17612L62.1637 9.50022L59.0535 7.96719C54.262 5.60518 51.0193 4.44801 47.8153 3.95715C45.4488 3.59454 44.9107 4.83356 45.3929 9.53516C45.8968 14.4484 47.1219 19.2385 48.989 23.5963C49.6435 25.1238 49.644 25.1319 49.3161 28.405C49.1205 30.358 49.0584 32.6897 49.1623 34.1712L49.3369 36.659L46.5061 35.8167C42.9155 34.7483 38.2923 34.1801 37.7243 34.7373C37.115 35.3353 37.6983 35.5752 40.8735 36.0329C45.6993 36.7283 50.1393 38.1736 50.3152 39.1061C50.3944 39.5269 50.2827 39.5514 49.1459 39.3611C47.5259 39.0903 42.0198 39.0896 40.4037 39.3601C39.691 39.4795 39.0902 39.7332 39.005 39.9509C38.7041 40.7208 39.2984 40.8421 42.0248 40.5675C45.2305 40.2447 50.3874 40.6019 51.3373 41.2129C52.1537 41.7379 51.9477 42.1954 50.8569 42.2798C48.1664 42.4881 42.8222 44.1953 42.8222 44.8466C42.8222 44.9753 42.9721 45.2031 43.155 45.352C43.3974 45.5496 44.2229 45.3762 46.1922 44.7145C48.0845 44.0788 49.5349 43.7669 51.023 43.6759L53.1497 43.5456L54.8409 44.9537C57.8466 47.4559 61.1002 48.9724 64.558 49.4826C67.6744 49.9424 67.7204 49.9562 67.8904 50.4817C67.9779 50.7525 67.8124 51.6832 67.5224 52.55C67.2325 53.417 66.8786 55.0382 66.7362 56.153C66.5938 57.2681 66.4096 58.2876 66.3267 58.4192C65.9609 59.0001 63.3428 58.6347 59.8315 57.5122C55.3925 56.0931 52.9849 55.5816 49.941 55.4105C47.1265 55.2524 44.5311 55.642 42.5694 56.5174C40.1958 57.5767 39.3844 58.6492 39.3844 60.7284C39.3844 62.4455 40.1592 63.5647 41.9395 64.4195C43.2384 65.0432 43.6152 65.1018 46.0794 65.0628C49.7571 65.0047 51.4888 65.4496 56.3139 67.6921C58.5396 68.7266 62.2315 70.2178 64.518 71.0062C66.8045 71.7944 68.9289 72.5449 69.2386 72.6736C69.5486 72.8024 70.2387 73.6742 70.7724 74.6108C72.0586 76.8681 74.4643 80.0272 76.5796 82.2377C79.8187 85.622 80.487 86.6683 81.1586 89.4061C81.7108 91.6572 81.955 98.0347 81.5678 100.095C80.9367 103.454 78.948 106.248 75.9859 107.938C73.4149 109.405 73.3315 112.533 75.8199 114.149C76.7243 114.737 77.2505 114.868 79.0618 114.962C80.9817 115.061 81.3904 114.998 82.7095 114.406C84.5902 113.561 85.7883 112.542 87.2103 110.576C89.7367 107.085 91.199 103.482 92.4145 97.7542C93.1805 94.145 93.7892 92.5663 94.7407 91.722C95.258 91.2625 95.3012 91.2809 97.0418 92.6938C98.6491 93.9986 101.472 95.5482 105.091 97.1123C107.915 98.3333 108.486 99.8977 107.023 102.402C105.993 104.164 104.469 105.444 102.184 106.466C99.8817 107.495 99.1067 108.447 99.3008 110.004C99.6258 112.613 103.428 113.8 107.118 112.445C110.06 111.365 114.027 108.08 116.492 104.685C117.651 103.089 117.786 102.824 119.363 99.0748C120.529 96.2997 121.489 94.9258 123.006 93.8566C124.991 92.4572 126.781 92.4913 127.915 93.9501C128.925 95.2494 129.523 97.2087 130.092 101.077C130.629 104.732 131.032 105.779 132.239 106.662C134.166 108.072 137.361 107.088 138.629 104.695C139.725 102.626 139.505 95.8363 138.175 90.6758C136.727 85.062 134.998 82.5353 131.527 80.9612C130.511 80.5007 129.431 79.8132 129.127 79.4335C128.485 78.6329 127.967 77.0065 127.383 73.9578C127.154 72.7657 126.742 71.1342 126.468 70.3323C125.7 68.0927 125.788 67.6097 127.257 65.9612C131.003 61.7606 132.553 57.986 132.559 53.0482C132.563 48.9701 132.153 47.5029 128.561 38.7736C126.185 32.9985 127.103 28.6338 131.122 26.5979C132.625 25.837 132.975 25.7638 135.11 25.7638C136.743 25.7638 137.724 25.6371 138.35 25.3453C140.661 24.2693 141.45 21.3789 140.147 18.7644C138.871 16.2048 136.347 14.7753 132.78 14.5907C128.373 14.3625 124.579 15.882 121.15 19.2494C117.877 22.4631 116.36 26.284 116.356 31.3234C116.353 35.3365 116.918 37.1325 120.585 44.7609C122.897 49.5714 123.446 51.2758 123.461 53.6857C123.474 55.9116 122.866 57.7396 121.649 59.1352C120.215 60.7792 119.927 60.8539 118.354 59.9882C116.008 58.6976 113.736 57.9518 109.988 57.2416C102.98 55.9141 98.5639 53.9568 94.6449 50.4417C91.965 48.0381 88.8096 43.2773 88.814 41.6446C88.8153 41.2547 89.3513 40.018 90.0056 38.896C92.5127 34.596 93.4426 31.5177 93.6645 26.7838C93.823 23.401 93.5923 21.2588 92.6795 17.6397C91.1951 11.7528 87.0853 3.43313 84.3792 0.836776C83.3934 -0.109255 82.1912 -0.255877 80.8881 0.410934ZM81.2571 5.93795C80.0634 7.54926 78.4475 10.9675 78.0911 12.6351L77.7774 14.1024L78.683 14.7549C80.3524 15.9587 83.5028 19.2479 84.3083 20.6282L85.106 21.9952L85.2855 21.0553C85.5581 19.6304 85.4949 14.147 85.1766 11.5881C84.8726 9.14272 84.2696 6.68177 83.6982 5.55545C83.1492 4.473 82.2361 4.61605 81.2571 5.93795ZM48.1362 12.5405C48.2937 14.3112 48.949 16.9583 50.1372 20.6236C50.2889 21.0923 50.5023 21.3792 50.6109 21.2611C50.7197 21.143 51.1394 19.7765 51.5437 18.2241L52.279 15.4021L51.6606 14.5267C50.35 12.6721 48.4816 10.4641 48.2228 10.4641C48.0417 10.4641 48.0131 11.1534 48.1362 12.5405ZM67.0966 31.9051C66.479 32.5747 66.4912 34.0932 67.1254 35.4732C67.8782 37.1116 69.4452 37.1615 69.8996 35.5615C70.2104 34.468 69.8869 32.9921 69.1474 32.1297C68.3843 31.2395 67.7721 31.1725 67.0966 31.9051ZM53.7395 32.0061C52.9862 32.8965 53.9149 36.3461 54.9077 36.3461C55.927 36.3461 55.6537 33.0227 54.5541 32.0463C54.1207 31.6613 54.0344 31.6572 53.7395 32.0061ZM56.1255 39.8395C55.7176 40.2398 55.7254 41.2376 56.1385 41.497C56.3173 41.6092 57.0139 42.3448 57.6868 43.132C59.0821 44.7637 60.0765 45.2765 61.3801 45.0363C62.58 44.8155 63.664 43.5596 63.5574 42.5136C63.4423 41.3838 62.9728 41.4113 62.5072 42.5748C62.0668 43.6749 61.2907 44.0569 60.0944 43.7621C58.655 43.4076 58.1854 42.4216 58.7885 41.0194C59.2139 40.03 56.9523 39.0281 56.1255 39.8395ZM22.2956 65.7883C14.0306 66.8353 7.54526 71.3278 3.74342 78.6395C-0.353589 86.5193 -0.209903 94.4895 4.16694 102.135C7.75546 108.403 12.7749 112.261 19.6289 114.018C22.4819 114.75 27.0024 114.922 29.9697 114.413C39.1775 112.834 47.5095 105.344 50.1528 96.2698C50.9471 93.5434 51.0045 87.1897 50.2635 84.0301C49.2325 79.6335 47.2299 76.0931 43.9278 72.8289C40.643 69.5818 36.7918 67.3955 32.4438 66.3097C29.9704 65.6921 25.0498 65.4392 22.2956 65.7883ZM25.7742 66.576C23.5482 66.861 22.188 67.2494 20.08 68.2021C12.8128 71.4861 6.97181 78.1943 4.45146 86.1509C3.62805 88.7503 3.4667 92.7155 4.08406 95.1861C4.5055 96.8739 4.88693 97.1014 4.88693 95.665C4.88693 94.3867 5.93457 90.3455 6.85047 88.0911C8.88572 83.0813 12.2672 78.3843 17.0631 73.9053C20.885 70.3361 24.8754 68.0572 28.96 67.1112C30.5369 66.746 30.8302 66.6114 30.3329 66.4808C29.5474 66.2748 27.8507 66.31 25.7742 66.576ZM33.7281 69.7682C27.799 71.2895 19.8248 78.2986 14.8907 86.325C11.2325 92.2761 9.62572 96.7439 9.38252 101.64L9.22974 104.716L10.4561 105.848C11.1307 106.47 11.7787 107.014 11.8961 107.056C12.0136 107.098 12.1918 106.524 12.2921 105.781C13.2122 98.96 16.6973 92.4059 23.5194 84.6676C29.5552 77.8212 34.9582 73.7887 40.4188 72.055C41.1689 71.8169 41.7829 71.5634 41.7829 71.492C41.7829 71.2271 40.5811 70.344 39.5743 69.8692C38.3157 69.2756 35.8159 69.2325 33.7281 69.7682ZM42.6224 77.209C36.6811 80.5922 30.177 87.2808 24.0029 96.3571C20.4723 101.547 18.2368 106.019 17.636 109.093C17.4365 110.113 17.4682 110.209 18.105 110.527C19.75 111.347 19.7815 111.335 21.394 109.217C23.623 106.289 25.8181 103.721 30.7136 98.3141C38.7779 89.4074 45.8632 81.0158 46.8732 79.1752C47.3612 78.2858 47.3606 78.2787 46.7454 77.1401C45.9339 75.6392 45.3628 75.6487 42.6224 77.209ZM47.7735 87.0263C43.0719 95.1808 36.5535 103.025 29.2188 109.354C26.0415 112.096 26.04 112.264 29.1967 111.574C34.0968 110.504 38.3139 107.913 42.1726 103.601C45.8773 99.4614 48.2726 95.0563 49.1698 90.7344C49.6043 88.6406 49.7261 84.6676 49.3556 84.6676C49.2335 84.6676 48.5216 85.7291 47.7735 87.0263Z" fill="black" fill-opacity="0.99"/>
</svg>
