<svg width="170" height="115" viewBox="0 0 170 115" fill="none" xmlns="http://www.w3.org/2000/svg">
<path fill-rule="evenodd" clip-rule="evenodd" d="M52.2043 0.357435C47.562 0.757727 41.7484 2.11905 38.0907 3.66226C36.5845 4.29777 34.288 4.92613 32.9874 5.05844C30.538 5.30752 27.3318 6.71254 25.3787 8.39309C24.7598 8.92569 23.3185 10.4958 22.1763 11.8819C19.0288 15.7012 14.927 19.7882 8.12713 25.8791C4.39775 29.22 1.73848 31.9389 1.38627 32.7701C1.06692 33.5258 0.810772 35.3722 0.817513 36.8739C0.833522 40.4387 1.7764 42.4284 7.38774 50.7349C9.96149 54.5455 12.4552 58.8134 13.3997 61.0257C15.3601 65.6159 15.9019 66.2762 17.708 66.2762C19.5508 66.2762 21.7116 64.3743 22.834 61.7637C24.7884 57.2202 25.1807 53.7957 25.0951 42.0214C25.0079 29.9971 25.5013 25.9269 27.7072 20.4816C28.8873 17.5695 31.9485 12.3842 32.9567 11.59C33.5873 11.0931 33.5857 11.1464 32.939 12.157C30.4267 16.0839 28.8178 19.881 27.5037 24.9873C26.8271 27.6151 26.6156 30.1743 26.434 37.9239C26.1855 48.5474 25.9757 47.2361 29.1999 55.207C30.1478 57.5508 31.6628 62.0321 32.5661 65.1652C34.3781 71.4497 35.1702 73.0059 37.7334 75.3144C40.6648 77.9552 43.6434 79.091 47.57 79.0653C51.213 79.0414 53.5807 78.1799 55.8655 76.0461C57.1222 74.8726 57.2528 74.9007 60.1076 76.9559C66.7979 81.772 76.9403 78.4739 80.6718 70.2686C81.3404 68.7989 82.7581 64.5112 83.8223 60.7405C84.8865 56.9703 86.2655 52.6566 86.8865 51.155C88.0135 48.4294 88.0151 48.4063 88.0151 37.2939C88.0151 26.7901 87.9595 25.9862 87.0276 23.0275C85.9288 19.5387 84.1354 15.7895 82.1982 12.932C81.1892 11.4434 81.1167 11.2165 81.8574 11.8642C83.4246 13.2344 86.8363 19.2623 87.9987 22.7141C89.5702 27.3811 89.8478 30.5788 89.4804 39.7759C89.1286 48.5915 89.4927 54.9479 90.5636 58.6702C91.9455 63.4745 94.432 66.2711 97.3238 66.2745C98.9636 66.2766 99.7211 65.4151 100.646 62.4959C101.852 58.6916 104.628 53.8633 109.897 46.4065C112.144 43.2269 113.903 38.7905 113.916 36.2715C113.929 33.8773 112.549 31.3975 109.803 28.881C108.479 27.6676 103.035 22.3789 97.7051 17.1289C91.7572 11.2695 87.3027 7.22288 86.1707 6.65121C85.1566 6.13877 83.2607 5.61289 81.9576 5.48268C80.655 5.35205 78.1672 4.62707 76.4293 3.87143C72.3869 2.11317 67.4353 0.861475 62.4572 0.338534C58.1262 -0.116362 57.6905 -0.115522 52.2043 0.357435ZM38.9333 28.3027C35.4011 29.8282 33.0397 33.6883 33.0485 37.9239C33.0603 43.7347 37.2173 47.7351 42.1984 46.7291L43.7783 46.4099L42.1731 46.0537C39.7413 45.5139 39.0951 45.0334 38.1315 43.0488C36.3861 39.4533 37.5118 34.7019 40.4373 33.3178C43.8549 31.7007 47.3235 34.9862 47.3888 39.9023C47.4356 43.4104 48.1388 41.041 48.1632 37.2939C48.1944 32.4538 46.1822 29.0037 42.7785 28.0607C40.846 27.5256 40.7133 27.534 38.9333 28.3027ZM70.1097 28.9256C67.1665 30.628 65.6165 34.5981 66.0993 39.1975C66.4945 42.9622 67.1349 43.5507 67.1088 40.1253C67.0932 38.0705 67.3072 36.9112 67.884 35.9267C68.8155 34.336 71.1175 32.6727 72.3839 32.6752C73.8105 32.6777 75.8096 34.1382 76.5683 35.7326C77.4564 37.5988 77.4834 41.548 76.6193 43.2138C75.8129 44.7688 73.6853 46.1087 72.0056 46.1196C71.0345 46.1255 70.8879 46.2217 71.3736 46.5346C71.7212 46.7585 72.8587 46.9416 73.9015 46.9412C77.7838 46.9404 81.415 43.502 81.8047 39.4579C82.2092 35.2618 80.224 30.7472 77.1539 28.881C75.3322 27.7734 72.0654 27.7944 70.1097 28.9256ZM39.5951 35.0135C38.3965 36.2089 39.0483 37.8777 40.6231 37.6455C42.1263 37.4241 42.6399 36.2602 41.6941 35.2185C40.7516 34.1802 40.4601 34.1516 39.5951 35.0135ZM72.8756 35.1635C71.5211 36.6554 73.0083 38.6401 74.7744 37.6975C75.8323 37.1334 75.8306 35.3533 74.7719 34.7884C73.7123 34.223 73.7329 34.2188 72.8756 35.1635ZM51.3617 55.5447C49.5838 56.195 47.7806 57.9175 47.7806 58.9659C47.7806 59.924 49.2691 62.5992 50.3729 63.6249C51.9061 65.0497 54.9597 66.2568 57.0493 66.2644C60.1333 66.2757 62.0135 65.5268 64.2098 63.4128C67.4779 60.2668 67.555 57.5441 64.42 55.9925C62.1901 54.8891 53.9304 54.606 51.3617 55.5447ZM54.1166 56.2496C50.6864 56.6708 49.2291 57.6747 49.3218 59.551C49.3635 60.3881 49.8425 61.3815 50.5857 62.1708C54.0892 65.891 60.4109 65.9137 63.8879 62.2186C65.368 60.6456 65.7973 58.6765 64.8632 57.7453C63.5092 56.3953 58.5487 55.7048 54.1166 56.2496ZM29.7476 80.1608C24.5803 90.6797 21.8772 97.8732 20.8383 103.869C20.5038 105.8 20.5488 107.364 21.0308 110.553C21.3767 112.843 21.6598 114.78 21.6598 114.858C21.6598 114.936 37.6673 115 57.2318 115C90.7435 115 92.8163 114.958 93.0261 114.265C93.1487 113.861 93.4411 111.967 93.6758 110.057C94.6077 102.469 91.4858 92.8895 82.1738 74.765L81.0325 72.5431L78.9293 74.8373C76.6741 77.2974 74.2874 78.8755 71.5843 79.6941C70.6574 79.9751 68.572 80.8547 66.95 81.6494C64.0409 83.0741 59.3395 84.3162 56.8008 84.3304C54.6159 84.3426 48.9506 82.707 47.2182 81.5641C46.3183 80.9706 44.6078 80.2011 43.4164 79.8542C40.4605 78.9931 37.6083 77.1063 35.4006 74.5517L33.5532 72.4133L29.7476 80.1608ZM55.4804 77.7489C54.5017 78.4483 52.4386 79.4287 50.8958 79.9272L48.0903 80.8332L50.7795 81.8506C54.4966 83.2564 59.5422 83.2619 63.2636 81.864C64.712 81.3201 65.8967 80.7539 65.8967 80.6056C65.8967 80.4573 64.9113 80.1028 63.7068 79.8176C62.5023 79.532 60.7522 78.7785 59.8177 78.1429C58.8833 77.507 57.9252 76.8723 57.6893 76.732C57.4534 76.5918 56.4591 77.0492 55.4804 77.7489Z" fill="black" fill-opacity="0.938"/>
<path fill-rule="evenodd" clip-rule="evenodd" d="M136.388 39.1892C127.724 40.6433 120.579 45.4891 116.203 52.8785C110.411 62.6602 110.943 74.6673 117.58 83.9522C122.98 91.5061 131.38 95.7721 140.805 95.7473C145.637 95.7345 149.544 94.7765 153.882 92.5416C159.152 89.8258 163.906 84.9101 166.331 79.6689C168.15 75.7386 168.855 72.7878 169.015 68.441C169.199 63.4499 168.396 59.4196 166.373 55.1723C164.879 52.0354 163.423 50.0104 160.699 47.2777C156.6 43.1665 152.354 40.8244 146.588 39.4938C144.242 38.9522 138.773 38.789 136.388 39.1892ZM137.65 41.9629C126.322 43.5947 117.701 51.728 115.537 62.8238C115.068 65.2339 115.071 69.5085 115.545 71.9689C117.012 79.5934 121.962 86.3259 128.693 89.8527C132.568 91.8834 136.247 92.7971 140.594 92.8093C143.782 92.8182 145.672 92.5256 148.606 91.5692C152.423 90.325 155.352 88.5585 158.317 85.7124C160.715 83.4094 161.945 81.7293 163.416 78.7459C166.589 72.3098 167.021 65.8886 164.744 59.0322C161.976 50.7006 155.067 44.568 145.957 42.3575C144.628 42.0351 139.004 41.768 137.65 41.9629ZM135.685 44.1728C129.832 45.4016 124.663 48.8994 121.075 54.0594C115.78 61.6739 115.656 72.3653 120.772 80.2641C122.049 82.2348 124.6 84.9057 126.701 86.471C128.849 88.0712 132.046 89.6186 134.706 90.345C136.649 90.8758 137.105 90.9189 140.7 90.9132C144.014 90.908 144.835 90.8403 146.24 90.4556C153.34 88.5126 158.83 84.0643 161.932 77.7413C166.522 68.3863 164.621 57.6615 157.073 50.3307C153.662 47.0182 149.647 44.9177 145.063 44.0483C142.656 43.5915 138.17 43.6511 135.685 44.1728ZM136.914 48.2565C129.248 49.8296 123.207 55.8375 121.672 63.4156C121.482 64.3494 121.357 65.6255 121.392 66.2516C121.448 67.2236 121.518 67.3895 121.873 67.3895C122.182 67.3895 122.554 66.8984 123.311 65.4968C125.76 60.9591 129.02 57.8072 133.444 55.6977C135.99 54.484 137.571 54.0596 140.383 53.8346C141.63 53.7347 142.795 53.5206 143.183 53.32C145.061 52.3488 144.954 49.2554 143.007 48.2487C142.244 47.8542 138.854 47.8584 136.914 48.2565ZM116.076 87.8083L114.949 88.949L117.043 91.0512L119.137 93.1534L120.28 92.0106L121.423 90.868L119.312 88.7677L117.202 86.6676L116.076 87.8083ZM102.911 98.8825C94.3367 107.477 93.3935 108.49 93.1679 109.343C92.2274 112.896 95.5874 115.981 99.0113 114.707C99.8571 114.393 101.403 112.946 109.312 105.064C114.431 99.9643 118.618 95.6457 118.618 95.4676C118.618 95.1149 112.963 89.3662 112.616 89.3662C112.499 89.3662 108.132 93.6487 102.911 98.8825Z" fill="black" fill-opacity="0.984"/>
</svg>
